#!OML:ASF E:\motion texture\Top Level 1\Subject 1\Session 1\male.ASF
:FULLY-SPECIFIED
:DEGREES
633
root -38.6542 17.9581 2.87343 45.0689 -79.9491 -42.5341
lowerback -1.61671 1.85333 5.04998
upperback -3.00028 2.42828 0.405772
thorax -1.99125 1.09479 -2.4075
lowerneck -20.2863 -1.67578 -5.74958
upperneck 21.3889 -0.800162 0.764859
head 10.2252 -0.7951 1.09858
rclavicle 2.01518e-014 -1.19271e-014
rhumerus 30.8373 30.8436 -59.3619
rradius 58.6569
rwrist 29.5758
rhand -22.951 -21.8594
rfingers 7.12502
rthumb 3.49042 -51.8106
lclavicle 2.01518e-014 -1.19271e-014
lhumerus 24.3862 -17.2608 78.2008
lradius 61.5265
lwrist -46.7244
lhand -25.6671 26.0227
lfingers 7.12502
lthumb 0.867268 56.0007
rfemur -13.4344 -1.86772 30.7556
rtibia 20.653
rfoot -5.98195 -15.7089
rtoes 16.3213
lfemur -18.917 -0.348931 -6.84669
ltibia 56.4825
lfoot 2.18833 -0.332102
ltoes -18.7644
634
root -38.7978 17.9703 2.85257 45.5834 -79.8635 -43.065
lowerback -1.61535 1.96701 5.19972
upperback -3.08093 2.57987 0.298938
thorax -2.05311 1.16279 -2.60169
lowerneck -20.3484 -1.71687 -5.80569
upperneck 21.3986 -0.835497 0.77101
head 10.2421 -0.81494 1.10469
rclavicle -6.70898e-015 -2.8625e-014
rhumerus 32.6622 30.2782 -58.2373
rradius 58.9728
rwrist 29.5918
rhand -23.0959 -22.0129
rfingers 7.12502
rthumb 3.35049 -51.9663
lclavicle -6.70898e-015 -2.8625e-014
lhumerus 25.5295 -16.9912 77.849
lradius 61.9282
lwrist -47.1397
lhand -25.9425 26.0474
lfingers 7.12502
lthumb 0.601323 56.0263
rfemur -12.7301 -1.71835 31.0634
rtibia 20.3405
rfoot -6.26762 -15.8398
rtoes 16.0428
lfemur -19.7105 -0.27776 -6.626
ltibia 56.3987
lfoot 1.88182 0.149506
ltoes -18.5912
635
root -38.9409 17.9819 2.83254 46.07 -79.7819 -43.5568
lowerback -1.62168 2.08103 5.34516
upperback -3.16227 2.73134 0.188378
thorax -2.11015 1.23064 -2.79717
lowerneck -20.414 -1.75697 -5.86137
upperneck 21.4069 -0.869402 0.778124
head 10.2591 -0.833903 1.11126
rclavicle -7.00716e-015 2.78299e-014
rhumerus 34.4112 29.6771 -57.1806
rradius 59.2699
rwrist 29.5856
rhand -23.2556 -22.1702
rfingers 7.12502
rthumb 3.19625 -52.126
lclavicle -7.00716e-015 2.78299e-014
lhumerus 26.643 -16.7192 77.5289
lradius 62.3148
lwrist -47.5268
lhand -26.208 26.048
lfingers 7.12502
lthumb 0.344876 56.0274
rfemur -12.0363 -1.56518 31.3619
rtibia 20.0217
rfoot -6.54379 -15.9777
rtoes 15.749
lfemur -20.4746 -0.22067 -6.42146
ltibia 56.1781
lfoot 1.52843 0.632573
ltoes -18.3856
636
root -39.0837 17.993 2.81336 46.5236 -79.7036 -44.0048
lowerback -1.63765 2.19544 5.48468
upperback -3.24454 2.8826 0.0740129
thorax -2.16161 1.29835 -2.993
lowerneck -20.476 -1.79525 -5.91382
upperneck 21.4108 -0.90212 0.785844
head 10.2738 -0.85187 1.11766
rclavicle 3.60794e-014 1.43125e-014
rhumerus 36.0792 29.0469 -56.1949
rradius 59.5462
rwrist 29.5655
rhand -23.4434 -22.332
rfingers 7.12502
rthumb 3.01487 -52.2904
lclavicle 3.60794e-014 1.43125e-014
lhumerus 27.722 -16.4489 77.2403
lradius 62.6894
lwrist -47.8845
lhand -26.455 26.0203
lfingers 7.12502
lthumb 0.106277 56
rfemur -11.3548 -1.40997 31.6507
rtibia 19.7002
rfoot -6.81194 -16.1224
rtoes 15.438
lfemur -21.208 -0.17964 -6.23247
ltibia 55.8213
lfoot 1.13154 1.1125
ltoes -18.1549
637
root -39.2262 18.0033 2.79505 46.9591 -79.6304 -44.4238
lowerback -1.66131 2.30846 5.61924
upperback -3.32796 3.03137 -0.0423458
thorax -2.20909 1.36475 -3.1879
lowerneck -20.539 -1.83057 -5.96756
upperneck 21.4123 -0.930761 0.796197
head 10.2877 -0.867676 1.12579
rclavicle 2.00276e-014 1.19271e-014
rhumerus 37.6737 28.4026 -55.2749
rradius 59.8084
rwrist 29.5208
rhand -23.6474 -22.51
rfingers 7.12502
rthumb 2.8179 -52.4712
lclavicle 2.00276e-014 1.19271e-014
lhumerus 28.7589 -16.176 76.9791
lradius 63.0504
lwrist -48.2144
lhand -26.6991 25.9782
lfingers 7.12502
lthumb -0.129426 55.9579
rfemur -10.6869 -1.25252 31.9302
rtibia 19.3794
rfoot -7.07311 -16.2712
rtoes 15.1134
lfemur -21.9075 -0.151431 -6.05752
ltibia 55.329
lfoot 0.697271 1.58662
ltoes -17.9194
